<?xml version="1.0" encoding="utf-8"?>
<!-- Generator: Adobe Illustrator 24.3.0, SVG Export Plug-In . SVG Version: 6.00 Build 0)  -->
<svg version="1.1" id="图层_1" xmlns="http://www.w3.org/2000/svg" xmlns:xlink="http://www.w3.org/1999/xlink" x="0px" y="0px"
	 viewBox="0 0 200 200" style="enable-background:new 0 0 200 200;" xml:space="preserve">
<path d="M2.1,100.2C2.1,46.1,45.9,2.3,100,2.3s97.9,43.8,97.9,97.9s-43.8,97.9-97.9,97.9S2.1,154.2,2.1,100.2z M89.9,146.1
	l38.1-38.5c4-4.1,4-10.7,0-14.8L89.9,54.2c-4-4.1-10.6-4.1-14.6,0c-4,4.1-4,10.7,0,14.8l30.7,31.1l-30.7,31.1c-4,4.1-4,10.7,0,14.8
	C79.3,150.2,85.8,150.2,89.9,146.1z"/>
</svg>
