<?xml version="1.0" standalone="no"?><!DOCTYPE svg PUBLIC "-//W3C//DTD SVG 1.1//EN" "http://www.w3.org/Graphics/SVG/1.1/DTD/svg11.dtd"><svg t="1635675621931" class="icon" viewBox="0 0 1024 1024" version="1.1" xmlns="http://www.w3.org/2000/svg" p-id="38203" xmlns:xlink="http://www.w3.org/1999/xlink" width="200" height="200"><defs><style type="text/css"></style></defs><path d="M149.6 273h724.8a4 4 0 0 0 3.8-5.3l-37.5-112.3a39.9 39.9 0 0 0-37.9-27.4H221.4a39.9 39.9 0 0 0-37.9 27.3l-37.7 112.4a4 4 0 0 0 3.8 5.3zM892 329H132a4 4 0 0 0-4 4v523a40 40 0 0 0 40 40h688a40 40 0 0 0 40-40V333a4 4 0 0 0-4-4zM656.2 547.4L520.5 683.2l-39.6 39.6a4 4 0 0 1-5.7 0l-39.6-39.6-67.8-67.9a3.9 3.9 0 0 1 0-5.6l39.5-39.6a4 4 0 0 1 5.7 0l65.1 65L611 502.2a4 4 0 0 1 5.7 0l39.5 39.6a3.9 3.9 0 0 1 0 5.6z" p-id="38204" fill="white"></path></svg>
