<?xml version="1.0" standalone="no"?><!DOCTYPE svg PUBLIC "-//W3C//DTD SVG 1.1//EN" "http://www.w3.org/Graphics/SVG/1.1/DTD/svg11.dtd"><svg t="1635674260942" class="icon" viewBox="0 0 1024 1024" version="1.1" xmlns="http://www.w3.org/2000/svg" p-id="19149" xmlns:xlink="http://www.w3.org/1999/xlink" width="200" height="200"><defs><style type="text/css"></style></defs><path d="M315.3 352h-184a4 4 0 0 0-4 4v504a40 40 0 0 0 40 40h112a40 40 0 0 0 40-40V356a4 4 0 0 0-4-4z m-36-220h-112a40 40 0 0 0-40 40v112a4 4 0 0 0 4 4h184a4 4 0 0 0 4-4V172a40 40 0 0 0-40-40z m230 0h-112a40 40 0 0 0-40 40v112a4 4 0 0 0 4 4h184a4 4 0 0 0 4-4V172a40 40 0 0 0-40-40z m36 220h-184a4 4 0 0 0-4 4v504a40 40 0 0 0 40 40h112a40 40 0 0 0 40-40V356a4 4 0 0 0-4-4z m318.9 300.9l-87.6-496.3a40 40 0 0 0-46.3-32.5L620 143.6a39.8 39.8 0 0 0-32.4 46.3l87.5 496.3a4 4 0 0 0 4.6 3.3l181.2-32a4 4 0 0 0 3.3-4.6z m31.9 181.2l-19.4-110.3a4 4 0 0 0-4.7-3.2l-181.2 31.9a4 4 0 0 0-3.2 4.6L707 867.4a40.1 40.1 0 0 0 46.4 32.5l110.3-19.5a40 40 0 0 0 32.4-46.3z" p-id="19150" fill="white"></path></svg>
