<?xml version="1.0" standalone="no"?><!DOCTYPE svg PUBLIC "-//W3C//DTD SVG 1.1//EN" "http://www.w3.org/Graphics/SVG/1.1/DTD/svg11.dtd"><svg t="1635675447975" class="icon" viewBox="0 0 1024 1024" version="1.1" xmlns="http://www.w3.org/2000/svg" p-id="20070" xmlns:xlink="http://www.w3.org/1999/xlink" width="200" height="200"><defs><style type="text/css"></style></defs><path d="M147.47085 807.511803C81.582608 724.931953 42.198415 620.273282 42.198415 506.415945 42.198415 239.583314 258.509001 23.272727 525.341631 23.272727 792.174263 23.272727 1008.484848 239.583314 1008.484848 506.415945 1008.484848 773.248574 792.174263 989.559163 525.341631 989.559163 459.164067 989.559163 396.094101 976.253961 338.660852 952.172681L15.515152 1016.242424 147.47085 807.511803ZM248.242424 457.69697 791.272727 457.69697C825.547854 457.69697 853.333333 429.91149 853.333333 395.636364 853.333333 361.361237 825.547854 333.575758 791.272727 333.575758L248.242424 333.575758C213.967298 333.575758 186.181818 361.361237 186.181818 395.636364 186.181818 429.91149 213.967298 457.69697 248.242424 457.69697ZM356.848485 705.939394 713.69697 705.939394C747.972096 705.939394 775.757576 678.153914 775.757576 643.878788 775.757576 609.603662 747.972096 581.818182 713.69697 581.818182L356.848485 581.818182C322.573359 581.818182 294.787879 609.603662 294.787879 643.878788 294.787879 678.153914 322.573359 705.939394 356.848485 705.939394Z" p-id="20071" fill="white"></path></svg>
